<svg xml:space="preserve" viewBox="377.59999999999997 196.8 876.8000000000001 816.0000000000001" width="876.8000000000001" y="0px" x="0px" xmlns:xlink="http://www.w3.org/1999/xlink" xmlns="http://www.w3.org/2000/svg" id="Layer_1" version="1.1" style="max-height: 500px" height="816.0000000000001">
<path d="M836.000000,1201.000000 &#10;&#9;C557.333374,1201.000000 279.166779,1201.000000 1.000112,1201.000000 &#10;&#9;C1.000075,801.000122 1.000075,401.000244 1.000037,1.000273 &#10;&#9;C534.333130,1.000182 1067.666260,1.000182 1600.999512,1.000091 &#10;&#9;C1600.999756,400.999725 1600.999756,800.999451 1600.999878,1200.999512 &#10;&#9;C1346.166626,1201.000000 1091.333374,1201.000000 836.000000,1201.000000 &#10;M903.147461,224.295776 &#10;&#9;C898.621033,223.190903 894.107849,222.028229 889.566162,220.990128 &#10;&#9;C844.828613,210.764465 799.724365,208.268768 754.097534,213.761200 &#10;&#9;C708.477112,219.252884 665.189148,232.254944 624.339905,253.136078 &#10;&#9;C559.472168,286.294891 507.737183,333.927307 469.216492,395.760620 &#10;&#9;C434.153076,452.044373 415.040253,513.542603 411.400208,579.619873 &#10;&#9;C408.252625,636.757324 417.237396,692.127136 438.535492,745.406677 &#10;&#9;C462.443237,805.214783 498.982422,856.010132 547.834229,897.797974 &#10;&#9;C595.888733,938.903748 650.898193,966.683289 712.545776,980.989197 &#10;&#9;C757.242676,991.361389 802.385315,993.735168 848.012878,988.258179 &#10;&#9;C883.475525,984.001343 917.684509,975.139221 950.570190,961.414734 &#10;&#9;C1005.873901,938.334412 1053.452393,904.302307 1093.216064,859.396179 &#10;&#9;C1120.946411,828.079712 1143.112061,793.238220 1159.581177,754.800720 &#10;&#9;C1175.498291,717.651978 1185.325073,678.966980 1189.257446,638.697571 &#10;&#9;C1192.483398,605.664185 1191.504761,572.799377 1186.410767,540.087830 &#10;&#9;C1180.795898,504.030334 1170.202026,469.417114 1154.743408,436.314392 &#10;&#9;C1130.689697,384.805756 1096.949097,340.618774 1053.747559,303.791443 &#10;&#9;C1009.745667,266.281769 959.715393,239.903046 903.147461,224.295776 &#10;z" stroke="none" opacity="1.000000" fill="#FFFFFF"/>
<path d="M903.529053,224.440033 &#10;&#9;C959.715393,239.903046 1009.745667,266.281769 1053.747559,303.791443 &#10;&#9;C1096.949097,340.618774 1130.689697,384.805756 1154.743408,436.314392 &#10;&#9;C1170.202026,469.417114 1180.795898,504.030334 1186.410767,540.087830 &#10;&#9;C1191.504761,572.799377 1192.483398,605.664185 1189.257446,638.697571 &#10;&#9;C1185.325073,678.966980 1175.498291,717.651978 1159.581177,754.800720 &#10;&#9;C1143.112061,793.238220 1120.946411,828.079712 1093.216064,859.396179 &#10;&#9;C1053.452393,904.302307 1005.873901,938.334412 950.570190,961.414734 &#10;&#9;C917.684509,975.139221 883.475525,984.001343 848.012878,988.258179 &#10;&#9;C802.385315,993.735168 757.242676,991.361389 712.545776,980.989197 &#10;&#9;C650.898193,966.683289 595.888733,938.903748 547.834229,897.797974 &#10;&#9;C498.982422,856.010132 462.443237,805.214783 438.535492,745.406677 &#10;&#9;C417.237396,692.127136 408.252625,636.757324 411.400208,579.619873 &#10;&#9;C415.040253,513.542603 434.153076,452.044373 469.216492,395.760620 &#10;&#9;C507.737183,333.927307 559.472168,286.294891 624.339905,253.136078 &#10;&#9;C665.189148,232.254944 708.477112,219.252884 754.097534,213.761200 &#10;&#9;C799.724365,208.268768 844.828613,210.764465 889.566162,220.990128 &#10;&#9;C894.107849,222.028229 898.621033,223.190903 903.529053,224.440033 &#10;M746.195801,468.500000 &#10;&#9;C746.195801,429.116852 746.195801,389.733704 746.195801,349.728394 &#10;&#9;C743.828735,350.501038 742.401733,350.863739 741.056152,351.422424 &#10;&#9;C730.907349,355.636292 721.060242,360.901489 710.561646,363.862885 &#10;&#9;C698.478210,367.271362 695.803467,373.852783 695.856445,385.978912 &#10;&#9;C696.390198,508.125305 696.159241,630.274963 696.203796,752.423706 &#10;&#9;C696.209473,767.980530 697.881958,783.348999 703.042603,798.148987 &#10;&#9;C710.022583,818.166504 720.857239,835.807129 739.040955,847.168030 &#10;&#9;C770.874939,867.057556 803.904846,868.022156 836.418335,848.846191 &#10;&#9;C874.609985,826.321472 901.462219,793.626099 917.918396,752.640747 &#10;&#9;C927.378296,729.080078 928.899048,704.799438 920.828186,680.296509 &#10;&#9;C913.971558,659.479919 903.563110,640.624329 889.678528,623.725098 &#10;&#9;C876.079895,607.173767 860.316467,593.301208 840.147583,585.122620 &#10;&#9;C837.289185,583.963440 834.835876,583.142151 831.914062,585.645752 &#10;&#9;C820.404419,595.507812 808.652100,605.086365 797.018372,614.804321 &#10;&#9;C793.924194,617.388916 790.931335,620.094727 787.480896,623.103271 &#10;&#9;C788.787170,623.575806 789.212158,623.841431 789.653809,623.873047 &#10;&#9;C804.019653,624.897217 816.825806,630.055054 828.365417,638.518188 &#10;&#9;C849.069092,653.702515 863.667297,673.713074 873.691833,697.083435 &#10;&#9;C884.770996,722.912415 889.619202,749.426514 878.937622,776.657043 &#10;&#9;C867.232666,806.496460 847.944702,828.013733 814.073303,831.500488 &#10;&#9;C784.847534,834.509155 762.806091,822.650208 750.953247,792.865540 &#10;&#9;C746.534241,781.761169 746.194153,770.146912 746.194458,758.457581 &#10;&#9;C746.196960,662.138367 746.195984,565.819214 746.195801,468.500000 &#10;M1030.165527,805.282227 &#10;&#9;C1013.773499,794.511780 993.959351,798.174377 983.151245,813.972717 &#10;&#9;C973.027710,828.770630 976.464478,848.354309 990.986084,858.618347 &#10;&#9;C1006.514343,869.593872 1027.468384,866.089355 1038.749268,850.629761 &#10;&#9;C1048.593628,837.138855 1045.168579,817.945801 1030.165527,805.282227 &#10;z" stroke="none" opacity="1.000000" fill="#FF6E43"/>
<path d="M746.195923,469.000000 &#10;&#9;C746.195984,565.819214 746.196960,662.138367 746.194458,758.457581 &#10;&#9;C746.194153,770.146912 746.534241,781.761169 750.953247,792.865540 &#10;&#9;C762.806091,822.650208 784.847534,834.509155 814.073303,831.500488 &#10;&#9;C847.944702,828.013733 867.232666,806.496460 878.937622,776.657043 &#10;&#9;C889.619202,749.426514 884.770996,722.912415 873.691833,697.083435 &#10;&#9;C863.667297,673.713074 849.069092,653.702515 828.365417,638.518188 &#10;&#9;C816.825806,630.055054 804.019653,624.897217 789.653809,623.873047 &#10;&#9;C789.212158,623.841431 788.787170,623.575806 787.480896,623.103271 &#10;&#9;C790.931335,620.094727 793.924194,617.388916 797.018372,614.804321 &#10;&#9;C808.652100,605.086365 820.404419,595.507812 831.914062,585.645752 &#10;&#9;C834.835876,583.142151 837.289185,583.963440 840.147583,585.122620 &#10;&#9;C860.316467,593.301208 876.079895,607.173767 889.678528,623.725098 &#10;&#9;C903.563110,640.624329 913.971558,659.479919 920.828186,680.296509 &#10;&#9;C928.899048,704.799438 927.378296,729.080078 917.918396,752.640747 &#10;&#9;C901.462219,793.626099 874.609985,826.321472 836.418335,848.846191 &#10;&#9;C803.904846,868.022156 770.874939,867.057556 739.040955,847.168030 &#10;&#9;C720.857239,835.807129 710.022583,818.166504 703.042603,798.148987 &#10;&#9;C697.881958,783.348999 696.209473,767.980530 696.203796,752.423706 &#10;&#9;C696.159241,630.274963 696.390198,508.125305 695.856445,385.978912 &#10;&#9;C695.803467,373.852783 698.478210,367.271362 710.561646,363.862885 &#10;&#9;C721.060242,360.901489 730.907349,355.636292 741.056152,351.422424 &#10;&#9;C742.401733,350.863739 743.828735,350.501038 746.195801,349.728394 &#10;&#9;C746.195801,389.733704 746.195801,429.116852 746.195923,469.000000 &#10;z" stroke="none" opacity="1.000000" fill="#FFFDFC"/>
<path d="M1030.450195,805.500366 &#10;&#9;C1045.168579,817.945801 1048.593628,837.138855 1038.749268,850.629761 &#10;&#9;C1027.468384,866.089355 1006.514343,869.593872 990.986084,858.618347 &#10;&#9;C976.464478,848.354309 973.027710,828.770630 983.151245,813.972717 &#10;&#9;C993.959351,798.174377 1013.773499,794.511780 1030.450195,805.500366 &#10;z" stroke="none" opacity="1.000000" fill="#FEFDFB"/>
</svg>